<?xml version="1.0" encoding="UTF-8" standalone="no"?>
<svg width="800" height="600" xmlns="http://www.w3.org/2000/svg">
  <!-- Background -->
  <rect width="800" height="600" fill="#f8f9fa" />
  
  <!-- Title -->
  <text x="400" y="30" text-anchor="middle" font-family="Arial, sans-serif" font-size="20" font-weight="bold">Family Service - Parent Entity State Diagram</text>
  
  <!-- Initial State -->
  <circle cx="400" cy="80" r="15" fill="#000000" />
  
  <!-- States -->
  <!-- Created State -->
  <rect x="350" y="120" width="100" height="60" rx="15" ry="15" fill="#e6f2ff" stroke="#3399ff" stroke-width="2" />
  <text x="400" y="155" text-anchor="middle" font-family="Arial, sans-serif" font-size="14">Created</text>
  
  <!-- Active State -->
  <rect x="350" y="240" width="100" height="60" rx="15" ry="15" fill="#e6fff2" stroke="#33cc99" stroke-width="2" />
  <text x="400" y="275" text-anchor="middle" font-family="Arial, sans-serif" font-size="14">Active</text>
  
  <!-- Updated State -->
  <rect x="200" y="350" width="100" height="60" rx="15" ry="15" fill="#ffffcc" stroke="#ffcc00" stroke-width="2" />
  <text x="250" y="385" text-anchor="middle" font-family="Arial, sans-serif" font-size="14">Updated</text>
  
  <!-- With Children State -->
  <rect x="500" y="350" width="100" height="60" rx="15" ry="15" fill="#ffcccc" stroke="#ff6666" stroke-width="2" />
  <text x="550" y="385" text-anchor="middle" font-family="Arial, sans-serif" font-size="14">With Children</text>
  
  <!-- Deleted State -->
  <rect x="350" y="460" width="100" height="60" rx="15" ry="15" fill="#e6e6ff" stroke="#8080ff" stroke-width="2" />
  <text x="400" y="495" text-anchor="middle" font-family="Arial, sans-serif" font-size="14">Deleted</text>
  
  <!-- Final State -->
  <circle cx="400" cy="560" r="15" fill="#ffffff" stroke="#000000" stroke-width="2" />
  <circle cx="400" cy="560" r="10" fill="#000000" />
  
  <!-- Transitions -->
  <!-- Initial to Created -->
  <line x1="400" y1="95" x2="400" y2="120" stroke="#000000" stroke-width="1.5" marker-end="url(#arrowhead)" />
  <text x="420" y="110" text-anchor="start" font-family="Arial, sans-serif" font-size="10">NewParent()</text>
  
  <!-- Created to Active -->
  <line x1="400" y1="180" x2="400" y2="240" stroke="#000000" stroke-width="1.5" marker-end="url(#arrowhead)" />
  <text x="420" y="210" text-anchor="start" font-family="Arial, sans-serif" font-size="10">Save to Database</text>
  
  <!-- Active to Updated -->
  <line x1="350" y1="270" x2="250" y2="350" stroke="#000000" stroke-width="1.5" marker-end="url(#arrowhead)" />
  <text x="270" y="300" text-anchor="start" font-family="Arial, sans-serif" font-size="10">Update()</text>
  
  <!-- Active to With Children -->
  <line x1="450" y1="270" x2="550" y2="350" stroke="#000000" stroke-width="1.5" marker-end="url(#arrowhead)" />
  <text x="520" y="300" text-anchor="start" font-family="Arial, sans-serif" font-size="10">AddChild()</text>
  
  <!-- Updated to Active -->
  <path d="M 200,380 C 150,380 150,270 200,270" fill="none" stroke="#000000" stroke-width="1.5" marker-end="url(#arrowhead)" />
  <text x="120" y="330" text-anchor="middle" font-family="Arial, sans-serif" font-size="10">Save to Database</text>
  
  <!-- With Children to Active -->
  <path d="M 600,380 C 650,380 650,270 600,270" fill="none" stroke="#000000" stroke-width="1.5" marker-end="url(#arrowhead)" />
  <text x="680" y="330" text-anchor="middle" font-family="Arial, sans-serif" font-size="10">RemoveChild()</text>
  
  <!-- With Children to With Children (self-transition) -->
  <path d="M 600,350 C 650,330 650,370 600,350" fill="none" stroke="#000000" stroke-width="1.5" marker-end="url(#arrowhead)" />
  <text x="680" y="360" text-anchor="middle" font-family="Arial, sans-serif" font-size="10">AddChild()</text>
  
  <!-- Active to Deleted -->
  <line x1="400" y1="300" x2="400" y2="460" stroke="#000000" stroke-width="1.5" marker-end="url(#arrowhead)" />
  <text x="420" y="380" text-anchor="start" font-family="Arial, sans-serif" font-size="10">MarkAsDeleted()</text>
  
  <!-- Updated to Deleted -->
  <line x1="300" y1="380" x2="350" y2="460" stroke="#000000" stroke-width="1.5" marker-end="url(#arrowhead)" />
  <text x="310" y="430" text-anchor="start" font-family="Arial, sans-serif" font-size="10">MarkAsDeleted()</text>
  
  <!-- With Children to Deleted -->
  <line x1="500" y1="380" x2="450" y2="460" stroke="#000000" stroke-width="1.5" marker-end="url(#arrowhead)" />
  <text x="480" y="430" text-anchor="start" font-family="Arial, sans-serif" font-size="10">MarkAsDeleted()</text>
  
  <!-- Deleted to Final -->
  <line x1="400" y1="520" x2="400" y2="545" stroke="#000000" stroke-width="1.5" marker-end="url(#arrowhead)" />
  <text x="420" y="535" text-anchor="start" font-family="Arial, sans-serif" font-size="10">Purge from Database</text>
  
  <!-- Arrow Marker Definition -->
  <defs>
    <marker id="arrowhead" markerWidth="10" markerHeight="7" refX="9" refY="3.5" orient="auto">
      <polygon points="0 0, 10 3.5, 0 7" fill="#333" />
    </marker>
  </defs>
</svg>