<?xml version="1.0" encoding="UTF-8" standalone="no"?>
<!DOCTYPE svg PUBLIC "-//W3C//DTD SVG 1.1//EN" "http://www.w3.org/Graphics/SVG/1.1/DTD/svg11.dtd">
<svg width="900" height="700" xmlns="http://www.w3.org/2000/svg" xmlns:xlink="http://www.w3.org/1999/xlink">
    <style>
        .title {
            font-family: Arial, sans-serif;
            font-size: 24px;
            font-weight: bold;
            text-anchor: middle;
        }
        .subtitle {
            font-family: Arial, sans-serif;
            font-size: 18px;
            font-weight: bold;
            text-anchor: middle;
        }
        .component {
            font-family: Arial, sans-serif;
            font-size: 14px;
            font-weight: bold;
            text-anchor: middle;
        }
        .interface {
            font-family: Arial, sans-serif;
            font-size: 12px;
            font-style: italic;
            text-anchor: middle;
        }
        .note {
            font-family: Arial, sans-serif;
            font-size: 12px;
            text-anchor: middle;
        }
    </style>

    <!-- Title -->
    <text x="450" y="30" class="title">Family Service - Hexagonal Architecture</text>
    <text x="450" y="60" class="subtitle">Primary Adapters (Left) and Secondary Adapters (Right)</text>

    <!-- Hexagon for Domain -->
    <polygon points="450,150 550,200 550,300 450,350 350,300 350,200" 
             fill="#FFCCCC" stroke="#FF6666" stroke-width="2" />
    <text x="450" y="180" class="subtitle">Domain</text>
    <text x="450" y="210" class="component">Entities</text>
    <text x="450" y="230" class="note">Parent, Child</text>
    <text x="450" y="250" class="component">Value Objects</text>
    <text x="450" y="270" class="note">Timestamps, IDs</text>
    <text x="450" y="290" class="component">Domain Services</text>
    <text x="450" y="310" class="note">Business Rules</text>

    <!-- Hexagon for Application -->
    <polygon points="450,100 600,175 600,375 450,450 300,375 300,175" 
             fill="#FFFFCC" stroke="#FFCC00" stroke-width="2" fill-opacity="0.7" />
    <text x="450" y="130" class="subtitle">Application</text>

    <!-- Application Components -->
    <rect x="320" y="340" width="120" height="60" fill="#FFFFCC" stroke="#FFCC00" stroke-width="1" />
    <text x="380" y="365" class="component">Services</text>
    <text x="380" y="385" class="note">FamilyService</text>

    <rect x="460" y="340" width="120" height="60" fill="#FFFFCC" stroke="#FFCC00" stroke-width="1" />
    <text x="520" y="365" class="component">Use Cases</text>
    <text x="520" y="385" class="note">CRUD Operations</text>

    <!-- Primary Ports (Left) -->
    <rect x="200" y="175" width="100" height="50" fill="#E6F2FF" stroke="#3399FF" stroke-width="1" rx="10" ry="10" />
    <text x="250" y="195" class="interface">«primary port»</text>
    <text x="250" y="215" class="component">Services API</text>

    <!-- Secondary Ports (Right) -->
    <rect x="600" y="175" width="100" height="50" fill="#E6F2FF" stroke="#3399FF" stroke-width="1" rx="10" ry="10" />
    <text x="650" y="195" class="interface">«secondary port»</text>
    <text x="650" y="215" class="component">Repositories</text>

    <!-- Primary Adapters (Left) -->
    <rect x="50" y="125" width="120" height="60" fill="#E6FFE6" stroke="#66CC66" stroke-width="1" />
    <text x="110" y="145" class="component">GraphQL</text>
    <text x="110" y="165" class="note">API</text>
    <text x="110" y="180" class="note">Implementation</text>

    <rect x="50" y="225" width="120" height="60" fill="#E6FFE6" stroke="#66CC66" stroke-width="1" />
    <text x="110" y="245" class="component">REST</text>
    <text x="110" y="265" class="note">API</text>
    <text x="110" y="280" class="note">Implementation</text>

    <rect x="50" y="325" width="120" height="60" fill="#E6FFE6" stroke="#66CC66" stroke-width="1" />
    <text x="110" y="345" class="component">gRPC</text>
    <text x="110" y="365" class="note">API</text>
    <text x="110" y="380" class="note">Implementation</text>

    <!-- Secondary Adapters (Right) -->
    <rect x="730" y="125" width="120" height="60" fill="#E6FFE6" stroke="#66CC66" stroke-width="1" />
    <text x="790" y="145" class="component">MongoDB</text>
    <text x="790" y="165" class="note">Repository</text>
    <text x="790" y="180" class="note">Implementation</text>

    <rect x="730" y="225" width="120" height="60" fill="#E6FFE6" stroke="#66CC66" stroke-width="1" />
    <text x="790" y="245" class="component">PostgreSQL</text>
    <text x="790" y="265" class="note">Repository</text>
    <text x="790" y="280" class="note">Implementation</text>

    <!-- Infrastructure -->
    <!-- First Row (4 boxes) -->
    <rect x="180" y="450" width="120" height="60" fill="#F2E6FF" stroke="#9966CC" stroke-width="1" />
    <text x="240" y="470" class="component">Logging</text>
    <text x="240" y="490" class="note">Zap Logger</text>

    <rect x="320" y="450" width="120" height="60" fill="#F2E6FF" stroke="#9966CC" stroke-width="1" />
    <text x="380" y="470" class="component">Auth</text>
    <text x="380" y="490" class="note">JWT, OIDC</text>

    <rect x="460" y="450" width="120" height="60" fill="#F2E6FF" stroke="#9966CC" stroke-width="1" />
    <text x="520" y="470" class="component">Health</text>
    <text x="520" y="490" class="note">Health Checks</text>

    <rect x="600" y="450" width="120" height="60" fill="#F2E6FF" stroke="#9966CC" stroke-width="1" />
    <text x="660" y="470" class="component">DI</text>
    <text x="660" y="490" class="note">Dependency Injection</text>

    <!-- Second Row (3 boxes) -->
    <rect x="250" y="520" width="120" height="60" fill="#F2E6FF" stroke="#9966CC" stroke-width="1" />
    <text x="310" y="540" class="component">Middleware</text>
    <text x="310" y="560" class="note">Request Processing</text>

    <rect x="390" y="520" width="120" height="60" fill="#F2E6FF" stroke="#9966CC" stroke-width="1" />
    <text x="450" y="540" class="component">Config</text>
    <text x="450" y="560" class="note">YAML, ENV</text>

    <rect x="530" y="520" width="120" height="60" fill="#F2E6FF" stroke="#9966CC" stroke-width="1" />
    <text x="590" y="540" class="component">Telemetry</text>
    <text x="590" y="560" class="note">OpenTelemetry</text>

    <!-- Connections -->
    <!-- Primary Adapters to Ports -->
    <line x1="170" y1="155" x2="200" y2="175" stroke="#000000" stroke-width="1" />
    <line x1="170" y1="255" x2="200" y2="200" stroke="#000000" stroke-width="1" />
    <line x1="170" y1="355" x2="200" y2="225" stroke="#000000" stroke-width="1" />

    <!-- Ports to Application -->
    <line x1="300" y1="200" x2="350" y2="250" stroke="#000000" stroke-width="1" />
    <line x1="550" y1="250" x2="600" y2="200" stroke="#000000" stroke-width="1" />

    <!-- Secondary Ports to Adapters -->
    <line x1="700" y1="175" x2="730" y2="155" stroke="#000000" stroke-width="1" />
    <line x1="700" y1="225" x2="730" y2="255" stroke="#000000" stroke-width="1" />

    <!-- External Systems -->
    <rect x="730" y="600" width="120" height="60" fill="#FFE6E6" stroke="#FF9999" stroke-width="1" />
    <text x="790" y="620" class="component">MongoDB</text>
    <text x="790" y="640" class="note">Database</text>

    <rect x="580" y="600" width="120" height="60" fill="#FFE6E6" stroke="#FF9999" stroke-width="1" />
    <text x="640" y="620" class="component">PostgreSQL</text>
    <text x="640" y="640" class="note">Database</text>

    <rect x="200" y="600" width="120" height="60" fill="#FFE6E6" stroke="#FF9999" stroke-width="1" />
    <text x="260" y="620" class="component">Prometheus</text>
    <text x="260" y="640" class="note">Metrics</text>

    <rect x="50" y="600" width="120" height="60" fill="#FFE6E6" stroke="#FF9999" stroke-width="1" />
    <text x="110" y="620" class="component">Grafana</text>
    <text x="110" y="640" class="note">Dashboards</text>

    <!-- Connections to External Systems -->
    <!-- No dashed lines from external systems to infrastructure as per requirements -->

    <!-- Legend -->
    <rect x="50" y="670" width="20" height="20" fill="#FFCCCC" stroke="#FF6666" stroke-width="1" />
    <text x="80" y="685" class="note" text-anchor="start">Domain Layer</text>

    <rect x="200" y="670" width="20" height="20" fill="#FFFFCC" stroke="#FFCC00" stroke-width="1" />
    <text x="230" y="685" class="note" text-anchor="start">Application Layer</text>

    <rect x="350" y="670" width="20" height="20" fill="#E6F2FF" stroke="#3399FF" stroke-width="1" />
    <text x="380" y="685" class="note" text-anchor="start">Ports (Interfaces)</text>

    <rect x="500" y="670" width="20" height="20" fill="#E6FFE6" stroke="#66CC66" stroke-width="1" />
    <text x="530" y="685" class="note" text-anchor="start">Adapters</text>

    <rect x="650" y="670" width="20" height="20" fill="#F2E6FF" stroke="#9966CC" stroke-width="1" />
    <text x="680" y="685" class="note" text-anchor="start">Infrastructure</text>

    <rect x="800" y="670" width="20" height="20" fill="#FFE6E6" stroke="#FF9999" stroke-width="1" />
    <text x="830" y="685" class="note" text-anchor="start">External Systems</text>
</svg>
